<mxfile host="app.diagrams.net" agent="Mozilla/5.0 (Windows NT 10.0; Win64; x64) AppleWebKit/537.36 (KHTML, like Gecko) Chrome/130.0.0.0 Safari/537.36 OPR/115.0.0.0" version="26.0.6">
  <diagram name="Strona-1" id="5hNUbugSeZ9_IxhRHnft">
    <mxGraphModel dx="929" dy="544" grid="1" gridSize="10" guides="1" tooltips="1" connect="1" arrows="1" fold="1" page="1" pageScale="1" pageWidth="827" pageHeight="1169" math="0" shadow="0">
      <root>
        <mxCell id="0" />
        <mxCell id="1" parent="0" />
        <mxCell id="5Wrn5LKmiLvVkRI66Itk-10" style="edgeStyle=orthogonalEdgeStyle;rounded=0;orthogonalLoop=1;jettySize=auto;html=1;" edge="1" parent="1" source="5Wrn5LKmiLvVkRI66Itk-2" target="5Wrn5LKmiLvVkRI66Itk-2">
          <mxGeometry relative="1" as="geometry">
            <mxPoint x="90" y="220" as="targetPoint" />
            <Array as="points">
              <mxPoint x="70" y="330" />
              <mxPoint x="70" y="220" />
              <mxPoint x="305" y="220" />
            </Array>
          </mxGeometry>
        </mxCell>
        <mxCell id="5Wrn5LKmiLvVkRI66Itk-14" value="TAK" style="edgeLabel;html=1;align=center;verticalAlign=middle;resizable=0;points=[];" vertex="1" connectable="0" parent="5Wrn5LKmiLvVkRI66Itk-10">
          <mxGeometry x="-0.6892" y="1" relative="1" as="geometry">
            <mxPoint x="1" as="offset" />
          </mxGeometry>
        </mxCell>
        <mxCell id="5Wrn5LKmiLvVkRI66Itk-21" style="edgeStyle=orthogonalEdgeStyle;rounded=0;orthogonalLoop=1;jettySize=auto;html=1;entryX=0.5;entryY=0;entryDx=0;entryDy=0;" edge="1" parent="1" source="5Wrn5LKmiLvVkRI66Itk-2" target="5Wrn5LKmiLvVkRI66Itk-20">
          <mxGeometry relative="1" as="geometry" />
        </mxCell>
        <mxCell id="5Wrn5LKmiLvVkRI66Itk-29" value="NIE" style="edgeLabel;html=1;align=center;verticalAlign=middle;resizable=0;points=[];" vertex="1" connectable="0" parent="5Wrn5LKmiLvVkRI66Itk-21">
          <mxGeometry x="-0.4841" y="1" relative="1" as="geometry">
            <mxPoint x="1" as="offset" />
          </mxGeometry>
        </mxCell>
        <mxCell id="5Wrn5LKmiLvVkRI66Itk-2" value="Kolejka jest pusta" style="rhombus;whiteSpace=wrap;html=1;" vertex="1" parent="1">
          <mxGeometry x="230" y="260" width="150" height="140" as="geometry" />
        </mxCell>
        <mxCell id="5Wrn5LKmiLvVkRI66Itk-24" value="" style="edgeStyle=orthogonalEdgeStyle;rounded=0;orthogonalLoop=1;jettySize=auto;html=1;" edge="1" parent="1" source="5Wrn5LKmiLvVkRI66Itk-20" target="5Wrn5LKmiLvVkRI66Itk-23">
          <mxGeometry relative="1" as="geometry" />
        </mxCell>
        <mxCell id="5Wrn5LKmiLvVkRI66Itk-20" value="Pobierz element z kolejki" style="rounded=1;whiteSpace=wrap;html=1;" vertex="1" parent="1">
          <mxGeometry x="510" y="370" width="120" height="60" as="geometry" />
        </mxCell>
        <mxCell id="5Wrn5LKmiLvVkRI66Itk-27" style="edgeStyle=orthogonalEdgeStyle;rounded=0;orthogonalLoop=1;jettySize=auto;html=1;entryX=0.5;entryY=0;entryDx=0;entryDy=0;" edge="1" parent="1" source="5Wrn5LKmiLvVkRI66Itk-23" target="5Wrn5LKmiLvVkRI66Itk-2">
          <mxGeometry relative="1" as="geometry">
            <mxPoint x="670" y="380" as="targetPoint" />
            <Array as="points">
              <mxPoint x="670" y="510" />
              <mxPoint x="670" y="220" />
              <mxPoint x="305" y="220" />
            </Array>
          </mxGeometry>
        </mxCell>
        <mxCell id="5Wrn5LKmiLvVkRI66Itk-23" value="Na podstawie typu sygnału wykonaj funkcję &lt;b&gt;BuzzerBeep&lt;/b&gt; odpowiednią ilość razy, z zadanymi parametrami" style="whiteSpace=wrap;html=1;rounded=1;" vertex="1" parent="1">
          <mxGeometry x="510" y="460" width="120" height="100" as="geometry" />
        </mxCell>
        <mxCell id="5Wrn5LKmiLvVkRI66Itk-28" value="" style="group" vertex="1" connectable="0" parent="1">
          <mxGeometry x="60" y="455" width="440" height="110" as="geometry" />
        </mxCell>
        <mxCell id="5Wrn5LKmiLvVkRI66Itk-25" value="" style="rounded=1;whiteSpace=wrap;html=1;dashed=1;" vertex="1" parent="5Wrn5LKmiLvVkRI66Itk-28">
          <mxGeometry width="440" height="110" as="geometry" />
        </mxCell>
        <mxCell id="5Wrn5LKmiLvVkRI66Itk-12" value="" style="edgeStyle=orthogonalEdgeStyle;rounded=0;orthogonalLoop=1;jettySize=auto;html=1;" edge="1" parent="5Wrn5LKmiLvVkRI66Itk-28" source="5Wrn5LKmiLvVkRI66Itk-9" target="5Wrn5LKmiLvVkRI66Itk-11">
          <mxGeometry relative="1" as="geometry" />
        </mxCell>
        <mxCell id="5Wrn5LKmiLvVkRI66Itk-9" value="Ustaw ARR zegara na obliczoną wartość, włącz zegar" style="rounded=1;whiteSpace=wrap;html=1;" vertex="1" parent="5Wrn5LKmiLvVkRI66Itk-28">
          <mxGeometry x="10" y="25" width="120" height="60" as="geometry" />
        </mxCell>
        <mxCell id="5Wrn5LKmiLvVkRI66Itk-22" style="edgeStyle=orthogonalEdgeStyle;rounded=0;orthogonalLoop=1;jettySize=auto;html=1;entryX=0;entryY=0.5;entryDx=0;entryDy=0;" edge="1" parent="5Wrn5LKmiLvVkRI66Itk-28" source="5Wrn5LKmiLvVkRI66Itk-11" target="5Wrn5LKmiLvVkRI66Itk-17">
          <mxGeometry relative="1" as="geometry" />
        </mxCell>
        <mxCell id="5Wrn5LKmiLvVkRI66Itk-11" value="osDelay(on_time)" style="whiteSpace=wrap;html=1;rounded=1;" vertex="1" parent="5Wrn5LKmiLvVkRI66Itk-28">
          <mxGeometry x="160" y="25" width="120" height="60" as="geometry" />
        </mxCell>
        <mxCell id="5Wrn5LKmiLvVkRI66Itk-17" value="wyłącz zegar,&lt;div&gt;osDelay(off_time)&lt;/div&gt;" style="rounded=1;whiteSpace=wrap;html=1;" vertex="1" parent="5Wrn5LKmiLvVkRI66Itk-28">
          <mxGeometry x="310" y="25" width="120" height="60" as="geometry" />
        </mxCell>
        <mxCell id="5Wrn5LKmiLvVkRI66Itk-26" value="&lt;font style=&quot;font-size: 14px;&quot;&gt;&lt;b&gt;BuzzerBeep&lt;/b&gt;&lt;/font&gt;" style="text;html=1;align=center;verticalAlign=middle;whiteSpace=wrap;rounded=0;" vertex="1" parent="5Wrn5LKmiLvVkRI66Itk-28">
          <mxGeometry x="30" width="60" height="30" as="geometry" />
        </mxCell>
        <mxCell id="5Wrn5LKmiLvVkRI66Itk-30" value="" style="endArrow=none;dashed=1;html=1;dashPattern=1 3;strokeWidth=2;rounded=0;exitX=1;exitY=0.5;exitDx=0;exitDy=0;entryX=0;entryY=0.5;entryDx=0;entryDy=0;" edge="1" parent="1" source="5Wrn5LKmiLvVkRI66Itk-25" target="5Wrn5LKmiLvVkRI66Itk-23">
          <mxGeometry width="50" height="50" relative="1" as="geometry">
            <mxPoint x="500" y="470" as="sourcePoint" />
            <mxPoint x="550" y="420" as="targetPoint" />
          </mxGeometry>
        </mxCell>
      </root>
    </mxGraphModel>
  </diagram>
</mxfile>
